<svg width="15" height="15" viewBox="0 0 15 15" fill="none" xmlns="http://www.w3.org/2000/svg">
<g clip-path="url(#clip0_20_76)">
<path d="M6.83187 1.71891C6.69773 1.22533 6.40489 0.789603 5.99855 0.478955C5.5922 0.168307 5.09492 0 4.58344 0C4.07195 0 3.57467 0.168307 3.16833 0.478955C2.76198 0.789603 2.46915 1.22533 2.335 1.71891H0V2.96891H2.335C2.46915 3.46249 2.76198 3.89822 3.16833 4.20887C3.57467 4.51952 4.07195 4.68782 4.58344 4.68782C5.09492 4.68782 5.5922 4.51952 5.99855 4.20887C6.40489 3.89822 6.69773 3.46249 6.83187 2.96891H15V1.71891H6.83187ZM4.58313 3.43766C4.3668 3.43766 4.15534 3.37351 3.97547 3.25333C3.7956 3.13315 3.65542 2.96233 3.57263 2.76247C3.48985 2.56262 3.46819 2.3427 3.51039 2.13053C3.55259 1.91837 3.65676 1.72348 3.80973 1.57051C3.96269 1.41755 4.15758 1.31338 4.36974 1.27118C4.58191 1.22898 4.80183 1.25064 5.00169 1.33342C5.20154 1.4162 5.37236 1.55639 5.49254 1.73626C5.61273 1.91612 5.67688 2.12759 5.67688 2.34391C5.67638 2.63384 5.56099 2.91175 5.35598 3.11676C5.15097 3.32177 4.87305 3.43717 4.58313 3.43766V3.43766Z" fill="white"/>
<path d="M10.4169 5.15625C9.90591 5.15808 9.40958 5.32706 9.00365 5.6374C8.59773 5.94775 8.3045 6.3824 8.16875 6.875H0V8.125H8.16875C8.30268 8.6187 8.59539 9.05458 9.00171 9.36536C9.40802 9.67613 9.90534 9.84452 10.4169 9.84452C10.9284 9.84452 11.4257 9.67613 11.832 9.36536C12.2384 9.05458 12.5311 8.6187 12.665 8.125H15V6.875H12.665C12.5292 6.3824 12.236 5.94775 11.8301 5.6374C11.4242 5.32706 10.9278 5.15808 10.4169 5.15625V5.15625ZM10.4169 8.59375C10.2006 8.59375 9.98909 8.5296 9.80922 8.40942C9.62935 8.28924 9.48917 8.11842 9.40638 7.91856C9.3236 7.7187 9.30194 7.49879 9.34414 7.28662C9.38634 7.07445 9.49051 6.87957 9.64348 6.7266C9.79644 6.57364 9.99133 6.46947 10.2035 6.42727C10.4157 6.38506 10.6356 6.40672 10.8354 6.48951C11.0353 6.57229 11.2061 6.71248 11.3263 6.89235C11.4465 7.07221 11.5106 7.28368 11.5106 7.5C11.5103 7.78998 11.395 8.06799 11.1899 8.27303C10.9849 8.47808 10.7069 8.59342 10.4169 8.59375V8.59375Z" fill="white"/>
<path d="M4.58313 10.3125C4.07184 10.3139 3.57508 10.4827 3.16877 10.7931C2.76247 11.1035 2.46897 11.5383 2.33313 12.0312H0V13.2812H2.335C2.46915 13.7748 2.76198 14.2106 3.16833 14.5212C3.57467 14.8318 4.07195 15.0002 4.58344 15.0002C5.09492 15.0002 5.5922 14.8318 5.99855 14.5212C6.40489 14.2106 6.69773 13.7748 6.83187 13.2812H15V12.0312H6.83187C6.69609 11.5385 6.40278 11.1038 5.99672 10.7935C5.59067 10.4831 5.0942 10.3142 4.58313 10.3125ZM4.58313 13.75C4.3668 13.75 4.15534 13.6858 3.97547 13.5657C3.7956 13.4455 3.65542 13.2747 3.57263 13.0748C3.48985 12.8749 3.46819 12.655 3.51039 12.4429C3.55259 12.2307 3.65676 12.0358 3.80973 11.8828C3.96269 11.7299 4.15758 11.6257 4.36974 11.5835C4.58191 11.5413 4.80183 11.563 5.00169 11.6458C5.20154 11.7285 5.37236 11.8687 5.49254 12.0486C5.61273 12.2285 5.67688 12.4399 5.67688 12.6562C5.67638 12.9462 5.56099 13.2241 5.35598 13.4291C5.15097 13.6341 4.87305 13.7495 4.58313 13.75V13.75Z" fill="white"/>
</g>
<defs>
<clipPath id="clip0_20_76">
<rect width="15" height="15" fill="white"/>
</clipPath>
</defs>
</svg>
