<svg width="15" height="15" viewBox="0 0 15 15" fill="none" xmlns="http://www.w3.org/2000/svg">
<g clip-path="url(#clip0_20_77)">
<path d="M2.8125 10.9377H1.25C0.918479 10.9377 0.600537 11.0694 0.366117 11.3039C0.131696 11.5383 0 11.8562 0 12.1877L0 13.7502C0 14.0818 0.131696 14.3997 0.366117 14.6341C0.600537 14.8685 0.918479 15.0002 1.25 15.0002H2.8125C3.14402 15.0002 3.46196 14.8685 3.69638 14.6341C3.9308 14.3997 4.0625 14.0818 4.0625 13.7502V12.1877C4.0625 11.8562 3.9308 11.5383 3.69638 11.3039C3.46196 11.0694 3.14402 10.9377 2.8125 10.9377ZM2.8125 13.7502H1.25V12.1877H2.8125V13.7502Z" fill="white"/>
<path d="M13.75 10.9377H12.1875C11.856 10.9377 11.538 11.0694 11.3036 11.3039C11.0692 11.5383 10.9375 11.8562 10.9375 12.1877V13.7502C10.9375 14.0818 11.0692 14.3997 11.3036 14.6341C11.538 14.8685 11.856 15.0002 12.1875 15.0002H13.75C14.0815 15.0002 14.3995 14.8685 14.6339 14.6341C14.8683 14.3997 15 14.0818 15 13.7502V12.1877C15 11.8562 14.8683 11.5383 14.6339 11.3039C14.3995 11.0694 14.0815 10.9377 13.75 10.9377ZM13.75 13.7502H12.1875V12.1877H13.75V13.7502Z" fill="white"/>
<path d="M2.8125 5.46851H1.25C0.918479 5.46851 0.600537 5.6002 0.366117 5.83462C0.131696 6.06904 0 6.38698 0 6.7185L0 8.281C0 8.61252 0.131696 8.93046 0.366117 9.16488C0.600537 9.3993 0.918479 9.531 1.25 9.531H2.8125C3.14402 9.531 3.46196 9.3993 3.69638 9.16488C3.9308 8.93046 4.0625 8.61252 4.0625 8.281V6.7185C4.0625 6.38698 3.9308 6.06904 3.69638 5.83462C3.46196 5.6002 3.14402 5.46851 2.8125 5.46851ZM2.8125 8.281H1.25V6.7185H2.8125V8.281Z" fill="white"/>
<path d="M13.75 5.46851H12.1875C11.856 5.46851 11.538 5.6002 11.3036 5.83462C11.0692 6.06904 10.9375 6.38698 10.9375 6.7185V8.281C10.9375 8.61252 11.0692 8.93046 11.3036 9.16488C11.538 9.3993 11.856 9.531 12.1875 9.531H13.75C14.0815 9.531 14.3995 9.3993 14.6339 9.16488C14.8683 8.93046 15 8.61252 15 8.281V6.7185C15 6.38698 14.8683 6.06904 14.6339 5.83462C14.3995 5.6002 14.0815 5.46851 13.75 5.46851ZM13.75 8.281H12.1875V6.7185H13.75V8.281Z" fill="white"/>
<path d="M2.8125 0H1.25C0.918479 0 0.600537 0.131696 0.366117 0.366117C0.131696 0.600537 0 0.918479 0 1.25L0 2.8125C0 3.14402 0.131696 3.46196 0.366117 3.69638C0.600537 3.9308 0.918479 4.0625 1.25 4.0625H2.8125C3.14402 4.0625 3.46196 3.9308 3.69638 3.69638C3.9308 3.46196 4.0625 3.14402 4.0625 2.8125V1.25C4.0625 0.918479 3.9308 0.600537 3.69638 0.366117C3.46196 0.131696 3.14402 0 2.8125 0V0ZM2.8125 2.8125H1.25V1.25H2.8125V2.8125Z" fill="white"/>
<path d="M8.28124 10.9377H6.71875C6.38723 10.9377 6.06929 11.0694 5.83487 11.3039C5.60045 11.5383 5.46875 11.8562 5.46875 12.1877V13.7502C5.46875 14.0818 5.60045 14.3997 5.83487 14.6341C6.06929 14.8685 6.38723 15.0002 6.71875 15.0002H8.28124C8.61276 15.0002 8.93071 14.8685 9.16513 14.6341C9.39955 14.3997 9.53124 14.0818 9.53124 13.7502V12.1877C9.53124 11.8562 9.39955 11.5383 9.16513 11.3039C8.93071 11.0694 8.61276 10.9377 8.28124 10.9377ZM8.28124 13.7502H6.71875V12.1877H8.28124V13.7502Z" fill="white"/>
<path d="M8.28124 5.46851H6.71875C6.38723 5.46851 6.06929 5.6002 5.83487 5.83462C5.60045 6.06904 5.46875 6.38698 5.46875 6.7185V8.281C5.46875 8.61252 5.60045 8.93046 5.83487 9.16488C6.06929 9.3993 6.38723 9.531 6.71875 9.531H8.28124C8.61276 9.531 8.93071 9.3993 9.16513 9.16488C9.39955 8.93046 9.53124 8.61252 9.53124 8.281V6.7185C9.53124 6.38698 9.39955 6.06904 9.16513 5.83462C8.93071 5.6002 8.61276 5.46851 8.28124 5.46851ZM8.28124 8.281H6.71875V6.7185H8.28124V8.281Z" fill="white"/>
<path d="M8.28124 0H6.71875C6.38723 0 6.06929 0.131696 5.83487 0.366117C5.60045 0.600537 5.46875 0.918479 5.46875 1.25V2.8125C5.46875 3.14402 5.60045 3.46196 5.83487 3.69638C6.06929 3.9308 6.38723 4.0625 6.71875 4.0625H8.28124C8.61276 4.0625 8.93071 3.9308 9.16513 3.69638C9.39955 3.46196 9.53124 3.14402 9.53124 2.8125V1.25C9.53124 0.918479 9.39955 0.600537 9.16513 0.366117C8.93071 0.131696 8.61276 0 8.28124 0V0ZM8.28124 2.8125H6.71875V1.25H8.28124V2.8125Z" fill="white"/>
<path d="M13.75 0H12.1875C11.856 0 11.538 0.131696 11.3036 0.366117C11.0692 0.600537 10.9375 0.918479 10.9375 1.25V2.8125C10.9375 3.14402 11.0692 3.46196 11.3036 3.69638C11.538 3.9308 11.856 4.0625 12.1875 4.0625H13.75C14.0815 4.0625 14.3995 3.9308 14.6339 3.69638C14.8683 3.46196 15 3.14402 15 2.8125V1.25C15 0.918479 14.8683 0.600537 14.6339 0.366117C14.3995 0.131696 14.0815 0 13.75 0V0ZM13.75 2.8125H12.1875V1.25H13.75V2.8125Z" fill="white"/>
</g>
<defs>
<clipPath id="clip0_20_77">
<rect width="15" height="15" fill="white"/>
</clipPath>
</defs>
</svg>
