<svg width="20" height="20" viewBox="0 0 20 20" fill="none" xmlns="http://www.w3.org/2000/svg">
<g clip-path="url(#clip0_20_89)">
<path d="M15.8333 0.832825H4.16667C3.062 0.834148 2.00296 1.27356 1.22185 2.05467C0.440735 2.83579 0.00132321 3.89483 0 4.99949L0 11.6662C0.00132321 12.7708 0.440735 13.8299 1.22185 14.611C2.00296 15.3921 3.062 15.8315 4.16667 15.8328H9.16667V17.4995H5.83333C5.61232 17.4995 5.40036 17.5873 5.24408 17.7436C5.0878 17.8998 5 18.1118 5 18.3328C5 18.5538 5.0878 18.7658 5.24408 18.9221C5.40036 19.0784 5.61232 19.1662 5.83333 19.1662H14.1667C14.3877 19.1662 14.5996 19.0784 14.7559 18.9221C14.9122 18.7658 15 18.5538 15 18.3328C15 18.1118 14.9122 17.8998 14.7559 17.7436C14.5996 17.5873 14.3877 17.4995 14.1667 17.4995H10.8333V15.8328H15.8333C16.938 15.8315 17.997 15.3921 18.7782 14.611C19.5593 13.8299 19.9987 12.7708 20 11.6662V4.99949C19.9987 3.89483 19.5593 2.83579 18.7782 2.05467C17.997 1.27356 16.938 0.834148 15.8333 0.832825V0.832825ZM18.3333 11.6662C18.3333 12.3292 18.0699 12.9651 17.6011 13.4339C17.1323 13.9028 16.4964 14.1662 15.8333 14.1662H4.16667C3.50363 14.1662 2.86774 13.9028 2.3989 13.4339C1.93006 12.9651 1.66667 12.3292 1.66667 11.6662V4.99949C1.66667 4.33645 1.93006 3.70057 2.3989 3.23172C2.86774 2.76288 3.50363 2.49949 4.16667 2.49949H15.8333C16.4964 2.49949 17.1323 2.76288 17.6011 3.23172C18.0699 3.70057 18.3333 4.33645 18.3333 4.99949V11.6662ZM16.6667 8.33282C16.6667 8.55384 16.5789 8.7658 16.4226 8.92208C16.2663 9.07836 16.0543 9.16616 15.8333 9.16616H13.3625L11.9458 11.2953C11.8695 11.4098 11.766 11.5035 11.6445 11.5682C11.5231 11.633 11.3876 11.6666 11.25 11.6662C11.2325 11.6662 11.215 11.6662 11.1983 11.6662C11.0525 11.6572 10.9117 11.61 10.7898 11.5294C10.668 11.4489 10.5695 11.3377 10.5042 11.207L8.64667 7.48949L7.77667 8.79532C7.70054 8.90942 7.59743 9.00296 7.47649 9.06765C7.35554 9.13234 7.22049 9.16618 7.08333 9.16616H4.16667C3.94565 9.16616 3.73369 9.07836 3.57741 8.92208C3.42113 8.7658 3.33333 8.55384 3.33333 8.33282C3.33333 8.11181 3.42113 7.89985 3.57741 7.74357C3.73369 7.58729 3.94565 7.49949 4.16667 7.49949H6.6375L8.05417 5.37032C8.13436 5.24746 8.24596 5.14828 8.3774 5.08308C8.50883 5.01787 8.65532 4.98901 8.80167 4.99949C8.94747 5.00847 9.08834 5.05562 9.21018 5.13621C9.33201 5.2168 9.43052 5.328 9.49583 5.45866L11.3533 9.17449L12.2233 7.86866C12.2996 7.75487 12.4028 7.66165 12.5238 7.59726C12.6447 7.53287 12.7797 7.49929 12.9167 7.49949H15.8333C16.0543 7.49949 16.2663 7.58729 16.4226 7.74357C16.5789 7.89985 16.6667 8.11181 16.6667 8.33282Z" fill="white"/>
</g>
<defs>
<clipPath id="clip0_20_89">
<rect width="20" height="20" fill="white"/>
</clipPath>
</defs>
</svg>
