<svg xmlns="http://www.w3.org/2000/svg" xmlns:xlink="http://www.w3.org/1999/xlink" width="60" zoomAndPan="magnify" viewBox="0 0 45 44.999999" height="60" preserveAspectRatio="xMidYMid meet" version="1.0"><defs><clipPath id="657403e6be"><path d="M 6.875 1.382812 L 38.375 1.382812 L 38.375 43.382812 L 6.875 43.382812 Z M 6.875 1.382812 " clip-rule="nonzero"/></clipPath></defs><g clip-path="url(#657403e6be)"><path fill="#ffffff" d="M 34.242188 18.722656 L 34.242188 13.132812 C 34.242188 6.644531 28.964844 1.371094 22.480469 1.371094 C 15.992188 1.371094 10.71875 6.644531 10.71875 13.132812 L 10.71875 18.722656 C 8.519531 19.371094 6.90625 21.40625 6.90625 23.8125 L 6.90625 38.28125 C 6.90625 41.207031 9.289062 43.589844 12.214844 43.589844 L 32.742188 43.589844 C 35.667969 43.589844 38.050781 41.207031 38.050781 38.28125 L 38.050781 23.8125 C 38.050781 21.40625 36.4375 19.371094 34.242188 18.722656 Z M 22.480469 4.023438 C 27.5 4.023438 31.585938 8.109375 31.585938 13.132812 L 31.585938 18.503906 L 13.371094 18.503906 L 13.371094 13.132812 C 13.371094 8.109375 17.457031 4.023438 22.480469 4.023438 Z M 35.398438 38.28125 C 35.398438 39.746094 34.207031 40.9375 32.742188 40.9375 L 12.214844 40.9375 C 10.75 40.9375 9.5625 39.746094 9.5625 38.28125 L 9.5625 23.8125 C 9.5625 22.605469 10.371094 21.585938 11.472656 21.265625 L 33.484375 21.265625 C 34.585938 21.585938 35.394531 22.605469 35.394531 23.8125 L 35.394531 38.28125 Z M 35.398438 38.28125 " fill-opacity="1" fill-rule="nonzero"/></g><path fill="#ffffff" d="M 25.246094 29.6875 C 25.246094 28.160156 24.007812 26.921875 22.480469 26.921875 C 20.953125 26.921875 19.714844 28.160156 19.714844 29.6875 C 19.714844 30.734375 20.292969 31.644531 21.152344 32.117188 L 21.152344 34.699219 C 21.152344 35.429688 21.746094 36.023438 22.480469 36.023438 C 23.210938 36.023438 23.804688 35.429688 23.804688 34.699219 L 23.804688 32.117188 C 24.664062 31.644531 25.246094 30.734375 25.246094 29.6875 Z M 25.246094 29.6875 " fill-opacity="1" fill-rule="nonzero"/></svg>
