<svg xmlns="http://www.w3.org/2000/svg" xmlns:xlink="http://www.w3.org/1999/xlink" width="60" zoomAndPan="magnify" viewBox="0 0 45 44.999999" height="60" preserveAspectRatio="xMidYMid meet" version="1.0"><defs><clipPath id="bf7ccbd585"><path d="M 5 0.976562 L 41.703125 0.976562 L 41.703125 43.726562 L 5 43.726562 Z M 5 0.976562 " clip-rule="nonzero"/></clipPath></defs><g clip-path="url(#bf7ccbd585)"><path fill="#000000" d="M 9.707031 43.726562 L 29.601562 43.726562 C 30.003906 43.726562 30.402344 43.6875 30.796875 43.609375 C 31.191406 43.53125 31.574219 43.414062 31.945312 43.261719 C 32.316406 43.105469 32.667969 42.917969 33.003906 42.695312 C 33.339844 42.472656 33.648438 42.21875 33.933594 41.9375 C 34.214844 41.652344 34.46875 41.34375 34.691406 41.011719 C 34.917969 40.675781 35.105469 40.324219 35.257812 39.953125 C 35.414062 39.585938 35.527344 39.203125 35.605469 38.808594 C 35.683594 38.417969 35.726562 38.019531 35.726562 37.617188 L 35.726562 29.9375 L 34.195312 30.816406 C 33.71875 31.089844 33.207031 31.273438 32.664062 31.367188 L 32.664062 37.617188 C 32.664062 38.023438 32.585938 38.414062 32.429688 38.785156 C 32.277344 39.160156 32.054688 39.492188 31.765625 39.777344 C 31.480469 40.0625 31.148438 40.285156 30.773438 40.4375 C 30.398438 40.59375 30.007812 40.671875 29.601562 40.671875 L 22.714844 40.671875 L 22.714844 23.875 L 30.367188 23.875 L 30.367188 26.855469 C 30.367188 26.988281 30.386719 27.121094 30.421875 27.25 C 30.457031 27.378906 30.507812 27.5 30.574219 27.617188 C 30.640625 27.734375 30.722656 27.839844 30.816406 27.933594 C 30.914062 28.027344 31.019531 28.109375 31.132812 28.175781 C 31.25 28.242188 31.375 28.292969 31.503906 28.328125 C 31.632812 28.363281 31.765625 28.378906 31.898438 28.378906 C 32.035156 28.378906 32.164062 28.363281 32.292969 28.328125 C 32.425781 28.292969 32.546875 28.242188 32.664062 28.175781 L 40.757812 23.511719 C 40.875 23.441406 40.980469 23.363281 41.074219 23.269531 C 41.171875 23.171875 41.25 23.066406 41.316406 22.953125 C 41.386719 22.835938 41.4375 22.714844 41.46875 22.585938 C 41.503906 22.453125 41.523438 22.324219 41.523438 22.191406 C 41.523438 22.054688 41.503906 21.925781 41.46875 21.796875 C 41.4375 21.667969 41.386719 21.542969 41.316406 21.425781 C 41.25 21.3125 41.171875 21.207031 41.074219 21.113281 C 40.980469 21.015625 40.875 20.9375 40.757812 20.867188 L 32.664062 16.242188 C 32.546875 16.175781 32.425781 16.125 32.292969 16.089844 C 32.164062 16.054688 32.035156 16.039062 31.898438 16.039062 C 31.765625 16.039062 31.632812 16.054688 31.503906 16.089844 C 31.375 16.125 31.25 16.175781 31.132812 16.242188 C 31.019531 16.308594 30.914062 16.390625 30.816406 16.484375 C 30.722656 16.578125 30.640625 16.683594 30.574219 16.800781 C 30.507812 16.917969 30.457031 17.039062 30.421875 17.167969 C 30.386719 17.296875 30.367188 17.429688 30.367188 17.5625 L 30.367188 20.824219 L 22.714844 20.824219 L 22.714844 11.296875 C 22.714844 10.707031 22.558594 10.164062 22.246094 9.667969 C 21.933594 9.171875 21.511719 8.792969 20.980469 8.539062 L 12.003906 4.242188 C 11.816406 4.160156 11.625 4.089844 11.429688 4.027344 L 29.601562 4.027344 C 30.007812 4.027344 30.398438 4.105469 30.773438 4.261719 C 31.148438 4.417969 31.480469 4.636719 31.765625 4.921875 C 32.054688 5.210938 32.277344 5.539062 32.429688 5.914062 C 32.585938 6.289062 32.664062 6.675781 32.664062 7.082031 L 32.664062 13.015625 C 33.207031 13.105469 33.71875 13.289062 34.195312 13.5625 L 35.726562 14.441406 L 35.726562 7.082031 C 35.726562 6.679688 35.683594 6.285156 35.605469 5.890625 C 35.527344 5.496094 35.414062 5.117188 35.257812 4.746094 C 35.105469 4.375 34.917969 4.023438 34.691406 3.6875 C 34.46875 3.355469 34.214844 3.046875 33.933594 2.765625 C 33.648438 2.480469 33.339844 2.226562 33.003906 2.003906 C 32.667969 1.78125 32.316406 1.59375 31.945312 1.441406 C 31.574219 1.285156 31.191406 1.171875 30.796875 1.09375 C 30.402344 1.015625 30.003906 0.976562 29.601562 0.976562 L 11.238281 0.976562 C 10.835938 0.976562 10.4375 1.015625 10.042969 1.09375 C 9.648438 1.171875 9.265625 1.285156 8.894531 1.441406 C 8.523438 1.59375 8.171875 1.78125 7.835938 2.003906 C 7.503906 2.226562 7.195312 2.480469 6.910156 2.765625 C 6.625 3.046875 6.371094 3.355469 6.148438 3.6875 C 5.925781 4.023438 5.734375 4.375 5.582031 4.746094 C 5.429688 5.117188 5.3125 5.496094 5.234375 5.890625 C 5.15625 6.285156 5.117188 6.679688 5.117188 7.082031 L 5.117188 39.144531 C 5.117188 39.445312 5.144531 39.742188 5.203125 40.039062 C 5.261719 40.332031 5.351562 40.621094 5.464844 40.898438 C 5.582031 41.175781 5.722656 41.4375 5.890625 41.6875 C 6.058594 41.941406 6.246094 42.171875 6.460938 42.382812 C 6.675781 42.597656 6.90625 42.785156 7.15625 42.953125 C 7.40625 43.121094 7.671875 43.261719 7.949219 43.375 C 8.230469 43.492188 8.515625 43.578125 8.8125 43.636719 C 9.109375 43.695312 9.40625 43.726562 9.707031 43.726562 Z M 9.707031 43.726562 " fill-opacity="1" fill-rule="nonzero"/></g></svg>